<svg xmlns="http://www.w3.org/2000/svg" viewBox="0 0 820 560" font-family="'Segoe UI','Inter',system-ui,sans-serif">
  <defs>
    <linearGradient id="bgB" x1="0%" y1="0%" x2="100%" y2="100%">
      <stop offset="0%" stop-color="#09090b"/>
      <stop offset="100%" stop-color="#18181b"/>
    </linearGradient>
    <linearGradient id="cyanB" x1="0%" y1="0%" x2="100%" y2="0%">
      <stop offset="0%" stop-color="#0e7490"/>
      <stop offset="100%" stop-color="#06b6d4"/>
    </linearGradient>
    <marker id="arrPurple" markerWidth="8" markerHeight="6" refX="8" refY="3" orient="auto"><path d="M0,0 L8,3 L0,6" fill="none" stroke="#8b5cf6" stroke-width="1"/></marker>
    <marker id="arrCyan" markerWidth="8" markerHeight="6" refX="8" refY="3" orient="auto"><path d="M0,0 L8,3 L0,6" fill="none" stroke="#22d3ee" stroke-width="1"/></marker>
    <marker id="arrGreen" markerWidth="8" markerHeight="6" refX="8" refY="3" orient="auto"><path d="M0,0 L8,3 L0,6" fill="none" stroke="#10b981" stroke-width="1"/></marker>
  </defs>
  <rect width="820" height="560" fill="url(#bgB)" rx="16"/>
  <text x="410" y="36" text-anchor="middle" fill="#e4e4e7" font-size="18" font-weight="700">Backend architecture</text>
  <line x1="260" y1="46" x2="560" y2="46" stroke="url(#cyanB)" stroke-width="1.5" opacity="0.5"/>

  <!-- Orchestrator -->
  <rect x="20" y="60" width="240" height="480" rx="12" fill="#18181b" stroke="#0e7490" stroke-width="1.2"/>
  <rect x="20" y="60" width="240" height="36" rx="12" fill="#0e7490" opacity="0.12"/>
  <text x="140" y="83" text-anchor="middle" fill="#22d3ee" font-size="11" font-weight="700" letter-spacing="1.5">AGENTIC ORCHESTRATOR</text>
  <text x="140" y="108" text-anchor="middle" fill="#52525b" font-size="9">Go, Hexagonal Architecture</text>

  <rect x="40" y="126" width="200" height="40" rx="7" fill="#1a1a2e" stroke="#3b82f6" stroke-width="0.8"/>
  <text x="140" y="146" text-anchor="middle" fill="#93c5fd" font-size="10" font-weight="600">Spec Agent</text>
  <text x="140" y="160" text-anchor="middle" fill="#64748b" font-size="8">task decomposition</text>

  <rect x="40" y="176" width="200" height="40" rx="7" fill="#1a1a2e" stroke="#8b5cf6" stroke-width="0.8"/>
  <text x="140" y="196" text-anchor="middle" fill="#c4b5fd" font-size="10" font-weight="600">Style Agent</text>
  <text x="140" y="210" text-anchor="middle" fill="#64748b" font-size="8">dynamic CSS theming</text>

  <rect x="40" y="226" width="200" height="40" rx="7" fill="#1a1a2e" stroke="#06b6d4" stroke-width="0.8"/>
  <text x="140" y="246" text-anchor="middle" fill="#67e8f9" font-size="10" font-weight="600">Code Agent</text>
  <text x="140" y="260" text-anchor="middle" fill="#64748b" font-size="8">structured code generation</text>

  <rect x="40" y="276" width="200" height="40" rx="7" fill="#1a1a2e" stroke="#f59e0b" stroke-width="0.8"/>
  <text x="140" y="296" text-anchor="middle" fill="#fcd34d" font-size="10" font-weight="600">Narrator Agent</text>
  <text x="140" y="310" text-anchor="middle" fill="#64748b" font-size="8">voiceover scripts</text>

  <rect x="40" y="326" width="200" height="40" rx="7" fill="#1a1a2e" stroke="#10b981" stroke-width="0.8"/>
  <text x="140" y="346" text-anchor="middle" fill="#6ee7b7" font-size="10" font-weight="600">Voice Agent</text>
  <text x="140" y="360" text-anchor="middle" fill="#64748b" font-size="8">TTS + alignment</text>

  <rect x="40" y="376" width="200" height="40" rx="7" fill="#1a1a2e" stroke="#f43f5e" stroke-width="0.8"/>
  <text x="140" y="396" text-anchor="middle" fill="#fda4af" font-size="10" font-weight="600">Visual Agent</text>
  <text x="140" y="410" text-anchor="middle" fill="#64748b" font-size="8">thumbnail + illustration</text>

  <rect x="40" y="426" width="200" height="40" rx="7" fill="#1a1a2e" stroke="#ec4899" stroke-width="0.8"/>
  <text x="140" y="446" text-anchor="middle" fill="#f9a8d4" font-size="10" font-weight="600">Story Agent</text>
  <text x="140" y="460" text-anchor="middle" fill="#64748b" font-size="8">article generation</text>

  <rect x="40" y="478" width="200" height="44" rx="7" fill="#1c1c20" stroke="#3f3f46" stroke-width="0.8" stroke-dasharray="4,3"/>
  <text x="140" y="498" text-anchor="middle" fill="#a1a1aa" font-size="9" font-weight="600">Event Sink (WebSocket)</text>
  <text x="140" y="514" text-anchor="middle" fill="#52525b" font-size="8">real-time streaming to frontend</text>

  <rect x="40" y="532" width="92" height="48" rx="7" fill="#1c1c20" stroke="#3f3f46" stroke-width="0.8"/>
  <text x="86" y="552" text-anchor="middle" fill="#a1a1aa" font-size="9" font-weight="600">S3</text>
  <text x="86" y="566" text-anchor="middle" fill="#52525b" font-size="8">job store</text>
  <rect x="148" y="532" width="92" height="48" rx="7" fill="#1c1c20" stroke="#3f3f46" stroke-width="0.8"/>
  <text x="194" y="552" text-anchor="middle" fill="#a1a1aa" font-size="9" font-weight="600">Firestore</text>
  <text x="194" y="566" text-anchor="middle" fill="#52525b" font-size="8">job index</text>

  <!-- Gemini Models -->
  <rect x="290" y="60" width="240" height="480" rx="12" fill="#18181b" stroke="#7c3aed" stroke-width="1.2"/>
  <rect x="290" y="60" width="240" height="36" rx="12" fill="#7c3aed" opacity="0.12"/>
  <text x="410" y="83" text-anchor="middle" fill="#c4b5fd" font-size="11" font-weight="700" letter-spacing="1.5">GEMINI MODELS</text>
  <text x="410" y="108" text-anchor="middle" fill="#52525b" font-size="9">Google GenAI SDK</text>

  <rect x="310" y="126" width="200" height="56" rx="8" fill="#1a1a2e" stroke="#8b5cf6" stroke-width="0.8"/>
  <text x="410" y="146" text-anchor="middle" fill="#e4e4e7" font-size="11" font-weight="700">Gemini 3 Flash</text>
  <text x="410" y="166" text-anchor="middle" fill="#71717a" font-size="8">spec, CSS, code, narration, story</text>

  <rect x="310" y="194" width="200" height="50" rx="8" fill="#1a1a2e" stroke="#8b5cf6" stroke-width="0.8"/>
  <text x="410" y="216" text-anchor="middle" fill="#e4e4e7" font-size="11" font-weight="700">Gemini 3.1 Flash Image</text>
  <text x="410" y="234" text-anchor="middle" fill="#71717a" font-size="8">thumbnail, illustration</text>

  <rect x="310" y="256" width="200" height="50" rx="8" fill="#1a1a2e" stroke="#22d3ee" stroke-width="0.8"/>
  <text x="410" y="278" text-anchor="middle" fill="#e4e4e7" font-size="11" font-weight="700">Gemini Live API</text>
  <text x="410" y="296" text-anchor="middle" fill="#71717a" font-size="8">real-time voice I/O</text>

  <rect x="310" y="318" width="200" height="50" rx="8" fill="#1a1a2e" stroke="#10b981" stroke-width="0.8"/>
  <text x="410" y="340" text-anchor="middle" fill="#e4e4e7" font-size="11" font-weight="700">Gemini TTS</text>
  <text x="410" y="358" text-anchor="middle" fill="#71717a" font-size="8">batch narration, PCM audio</text>

  <rect x="310" y="380" width="200" height="50" rx="8" fill="#1a1a2e" stroke="#f59e0b" stroke-width="0.8"/>
  <text x="410" y="402" text-anchor="middle" fill="#e4e4e7" font-size="11" font-weight="700">Gemini 2.5 Flash</text>
  <text x="410" y="420" text-anchor="middle" fill="#71717a" font-size="8">audio timestamp detection</text>

  <rect x="310" y="448" width="200" height="44" rx="8" fill="#1c1c20" stroke="#3f3f46" stroke-width="0.8" stroke-dasharray="4,3"/>
  <text x="410" y="470" text-anchor="middle" fill="#a1a1aa" font-size="9" font-weight="600">Schema-Constrained Output</text>
  <text x="410" y="484" text-anchor="middle" fill="#52525b" font-size="8">JSON schemas</text>

  <!-- Google Cloud -->
  <rect x="560" y="60" width="240" height="480" rx="12" fill="#18181b" stroke="#059669" stroke-width="1.2"/>
  <rect x="560" y="60" width="240" height="36" rx="12" fill="#059669" opacity="0.12"/>
  <text x="680" y="83" text-anchor="middle" fill="#6ee7b7" font-size="11" font-weight="700" letter-spacing="1.5">GOOGLE CLOUD</text>

  <rect x="580" y="126" width="200" height="56" rx="8" fill="#1a1a2e" stroke="#10b981" stroke-width="0.8"/>
  <text x="680" y="150" text-anchor="middle" fill="#e4e4e7" font-size="11" font-weight="700">Cloud Run</text>
  <text x="680" y="170" text-anchor="middle" fill="#71717a" font-size="8">API + Web containers</text>

  <rect x="580" y="196" width="200" height="56" rx="8" fill="#1a1a2e" stroke="#10b981" stroke-width="0.8"/>
  <text x="680" y="220" text-anchor="middle" fill="#e4e4e7" font-size="11" font-weight="700">Firestore / Datastore</text>
  <text x="680" y="240" text-anchor="middle" fill="#71717a" font-size="8">job index, quota</text>

  <rect x="580" y="266" width="200" height="48" rx="8" fill="#1a1a2e" stroke="#10b981" stroke-width="0.8"/>
  <text x="680" y="290" text-anchor="middle" fill="#e4e4e7" font-size="11" font-weight="700">Google OAuth 2.0</text>
  <text x="680" y="306" text-anchor="middle" fill="#71717a" font-size="8">auth + session</text>

  <rect x="580" y="328" width="200" height="48" rx="8" fill="#1a1a2e" stroke="#10b981" stroke-width="0.8"/>
  <text x="680" y="352" text-anchor="middle" fill="#e4e4e7" font-size="11" font-weight="700">Cloud Build</text>
  <text x="680" y="368" text-anchor="middle" fill="#71717a" font-size="8">container builds</text>

  <rect x="580" y="390" width="200" height="48" rx="8" fill="#1a1a2e" stroke="#10b981" stroke-width="0.8"/>
  <text x="680" y="414" text-anchor="middle" fill="#e4e4e7" font-size="11" font-weight="700">S3-Compatible</text>
  <text x="680" y="430" text-anchor="middle" fill="#71717a" font-size="8">job persistence</text>

  <!-- Arrows: Orchestrator to Gemini -->
  <line x1="262" y1="146" x2="308" y2="152" stroke="#8b5cf6" stroke-width="1" opacity="0.7" marker-end="url(#arrPurple)"/>
  <line x1="262" y1="196" x2="308" y2="219" stroke="#8b5cf6" stroke-width="1" opacity="0.7" marker-end="url(#arrPurple)"/>
  <line x1="262" y1="246" x2="308" y2="281" stroke="#8b5cf6" stroke-width="1" opacity="0.7" marker-end="url(#arrPurple)"/>
  <line x1="262" y1="346" x2="308" y2="343" stroke="#22d3ee" stroke-width="1" opacity="0.7" marker-end="url(#arrCyan)"/>
  <line x1="262" y1="346" x2="308" y2="333" stroke="#10b981" stroke-width="1" opacity="0.7" marker-end="url(#arrGreen)"/>
  <!-- Orchestrator to GCP -->
  <line x1="262" y1="556" x2="578" y2="152" stroke="#10b981" stroke-width="1" opacity="0.5" marker-end="url(#arrGreen)"/>
  <line x1="262" y1="556" x2="578" y2="222" stroke="#10b981" stroke-width="1" opacity="0.5" marker-end="url(#arrGreen)"/>
</svg>
